<?xml version="1.0" encoding="UTF-8"?>
<svg width="86px" height="86px" viewBox="0 0 86 86" version="1.1" xmlns="http://www.w3.org/2000/svg" xmlns:xlink="http://www.w3.org/1999/xlink">
    <!-- Generator: Sketch 63.1 (92452) - https://sketch.com -->
    <title>business-and-finance (2)</title>
    <desc>Created with Sketch.</desc>
    <g id="Page-1" stroke="none" stroke-width="1" fill="none" fill-rule="evenodd">
        <g id="Artboard" transform="translate(-4.000000, -4.000000)" fill="#FFFFFF" fill-rule="nonzero">
            <g id="business-and-finance-(2)" transform="translate(4.000000, 4.000000)">
                <path d="M82.1052617,60.7176653 C81.5675146,60.1834784 80.6957258,60.1834784 80.1579787,60.7176653 L79.1837347,61.6850675 L76.4890722,59.0080808 C75.1242823,55.1124783 72.892836,51.5727925 69.9607769,48.6524143 L67.4993477,46.2069748 C66.5529219,45.2613454 65.2021119,44.8331288 63.8793119,45.0593969 C62.556512,45.285665 61.4276242,46.13804 60.8540054,47.3436766 L60.6834266,47.174377 C59.6461419,46.1409235 58.1339444,45.7334768 56.7132321,46.1046472 C55.2925199,46.4758176 54.1776732,47.5695968 53.7862612,48.9763067 C51.9098365,48.5549963 49.9906218,49.4849106 49.1694463,51.2132853 L47.052273,49.1090103 C45.4389008,47.5062132 42.8231846,47.5062898 41.2099075,49.1091814 C39.5966303,50.712073 39.5967074,53.3107971 41.2100795,54.9135943 L49.3711802,63.0223637 L48.8597882,64.5467447 C48.0316062,67.0154167 48.5888325,69.7354341 50.322367,71.6861057 C52.0559014,73.6367772 54.7035781,74.5230988 57.2718514,74.0124765 L61.7077599,73.1310922 C62.6107398,72.9505602 63.5447002,73.2315416 64.1951803,73.8794309 L65.5529253,75.2283558 L64.5791977,76.195758 C64.3209404,76.4523244 64.1758518,76.8003111 64.1758518,77.1631602 C64.1758518,77.5260092 64.3209404,77.8739959 64.5791977,78.1305623 L68.4742802,82 L70.4215633,80.0651957 L67.5003805,77.1631602 L81.1329111,63.6191878 L84.0542661,66.5213943 L86,64.587103 L82.1052617,60.7176653 Z M66.1421191,71.9446266 C64.8410024,70.6493483 62.9734241,70.087514 61.1676225,70.4481202 L56.7315419,71.3295045 C55.1259626,71.6485905 53.4708171,71.0943586 52.3872212,69.874792 C51.3036254,68.6552254 50.9554598,66.9547685 51.4733784,65.411541 L51.5492869,65.1852951 L53.8685383,67.4894805 L55.8159935,65.5545051 L43.1573626,52.97879 C42.8059546,52.6339087 42.6673982,52.1284497 42.7942562,51.6541639 C42.9211142,51.1798781 43.2939506,50.8094309 43.7713264,50.6833551 C44.2487021,50.5572792 44.7574783,50.6948909 45.1046457,51.0439856 L53.868022,59.7504342 L55.8154772,57.8156298 L51.9207389,53.9460211 C51.5693615,53.601109 51.4308501,53.0956378 51.5577503,52.6213632 C51.6846505,52.1470886 52.0575199,51.7766741 52.5349069,51.6506401 C53.0122938,51.5246062 53.5210578,51.6622626 53.8681941,52.0113878 L57.7629324,55.8808255 L57.7629324,55.8808255 L59.7100433,53.9460211 L56.7874835,51.0424466 C56.2556523,50.506861 56.2589166,49.6451357 56.7947904,49.1135424 C57.3306643,48.581949 58.1980279,48.5800007 58.7363157,49.1091813 L62.6312261,52.97879 L64.5786813,51.0439856 L64.5786813,51.0439856 L63.6051258,50.0767545 C63.2537178,49.7318732 63.1151614,49.2264142 63.2420194,48.7521284 C63.3688774,48.2778426 63.7417139,47.9073954 64.2190896,47.7813196 C64.6964653,47.6552437 65.2052415,47.7928554 65.5524089,48.1419501 L68.0138381,50.5873896 C70.7228333,53.2851952 72.7659787,56.5697859 73.9830619,60.1836019 C74.0507587,60.3850599 74.1646638,60.5681264 74.3157852,60.7183494 L77.2367959,63.6205559 L67.4998641,73.2942355 L66.1421191,71.9446266 Z" id="Shape"></path>
                <path d="M4.86826823,25.6830105 C5.23355603,25.6834006 5.58395479,25.5392155 5.84199073,25.2823347 L6.81622961,24.3149325 L9.51087795,26.9919192 C10.8756607,30.8875217 13.1070953,34.4272075 16.0391391,37.3475857 L18.5005553,39.7930252 C19.4469762,40.7386546 20.7977791,41.1668712 22.1205721,40.9406031 C23.4433652,40.714335 24.5722471,39.86196 25.1458628,38.6563234 L25.3164407,38.825623 C26.35372,39.8590765 27.8659096,40.2665232 29.2866144,39.8953528 C30.7073192,39.5241824 31.82216,38.4304032 32.21357,37.0236933 C32.5065657,37.0888713 32.8058005,37.1223561 33.1060485,37.123563 C34.6986797,37.128603 36.1504428,36.2177497 36.8303606,34.7868857 L38.9475229,36.8903057 C39.9911862,37.9271642 41.5123424,38.3320872 42.9379864,37.9525442 C44.3636305,37.5730012 45.4771732,36.4666537 45.8591539,35.0502522 C46.2411346,33.6338507 45.8335212,32.1225802 44.7898579,31.0857216 L36.6286278,22.9776363 L37.1400171,21.4532553 C37.9681948,18.9845833 37.4109714,16.2645659 35.677446,14.3138943 C33.9439207,12.3632228 31.2962579,11.4769012 28.727998,11.9875235 L24.2921128,12.8689078 C23.3891361,13.0494715 22.4551656,12.7684856 21.8047054,12.1205691 L20.4469676,10.7716442 L21.42069,9.804242 C21.678946,9.54767558 21.8240338,9.1996889 21.8240338,8.83683983 C21.8240338,8.47399077 21.678946,8.12600409 21.42069,7.86943767 L17.5261443,4 L15.5788714,5.93480434 L18.5000389,8.83683983 L4.86757972,22.3808122 L1.94692861,19.4779217 L0,21.412897 L3.89488999,25.2823347 C4.15279857,25.5391955 4.50308461,25.6833852 4.86826823,25.6830105 Z M19.8577768,14.0553734 C21.1590999,15.3502985 23.0264751,15.9120746 24.8322474,15.5518798 L29.2683047,14.6704955 C30.8738296,14.3516329 32.5288153,14.9059324 33.6123465,16.1254326 C34.6958777,17.3449328 35.0441277,19.0452491 34.5264406,20.588459 L34.4505326,20.8147049 L32.1312933,18.5105195 L30.1838483,20.4454949 L42.8424129,33.02121 C43.1938191,33.3660913 43.3323747,33.8715503 43.2055174,34.3458361 C43.0786601,34.8201219 42.7058255,35.1905691 42.2284523,35.3166449 C41.7510791,35.4427208 41.2423055,35.3051091 40.89514,34.9560144 L32.1318096,26.2495658 L30.1843646,28.1843702 L34.0790825,32.0539789 C34.6112494,32.5891976 34.6085783,33.4508903 34.0731035,33.9828424 C33.5376286,34.5147946 32.670306,34.5173721 32.1316375,33.9886122 L28.2369197,30.1191745 L28.2369197,30.1191745 L26.2898189,32.0539789 L29.2123634,34.9575534 C29.7441918,35.493139 29.7409275,36.3548643 29.2050565,36.8864576 C28.6691855,37.418051 27.8018264,37.4199993 27.2635414,36.8908187 L23.3686514,33.02121 L21.4212064,34.9560144 L21.4212064,34.9560144 L22.3947568,35.9232455 C22.746163,36.2681268 22.8847187,36.7735858 22.7578613,37.2478716 C22.631004,37.7221574 22.2581695,38.0926046 21.7807963,38.2186804 C21.303423,38.3447563 20.7946495,38.2071446 20.4474839,37.8580499 L17.9860677,35.4126104 C15.2770867,32.7148048 13.2339519,29.4302141 12.0168751,25.8163981 C11.9491787,25.6149401 11.8352741,25.4318736 11.6841536,25.2816506 L8.76315822,22.3794441 L18.5000389,12.7057645 L19.8577768,14.0553734 Z" id="Shape"></path>
                <path d="M47.3435567,25.1459326 L47.1742564,25.3163412 C46.1407994,26.3536376 45.7333513,27.8658521 46.1045229,29.2865802 C46.4756946,30.7073084 47.5694777,31.8221676 48.9761924,32.213584 C48.5548805,34.0900298 49.4847981,36.0092661 51.2131787,36.8304507 L49.1088965,38.9476478 C47.5060938,40.5610382 47.5061704,43.1767837 49.1090675,44.7900789 C50.7119647,46.4033742 53.3106978,46.4032972 54.9135006,44.7899069 L63.0222981,36.6292309 L64.5466843,37.1406287 C65.2964535,37.3931164 66.0818068,37.5220949 66.872425,37.5225848 C69.0565263,37.5149438 71.122708,36.5242524 72.5048018,34.8219765 C73.8868957,33.1197006 74.439961,30.8843585 74.0124488,28.7284711 L73.1310615,24.2925128 C72.9505923,23.3895258 73.2315656,22.4555847 73.8794028,21.8050645 L75.2283324,20.4473042 L76.1957379,21.4210428 C76.4523052,21.679303 76.8002931,21.8243932 77.1631434,21.8243932 C77.5259937,21.8243932 77.8739816,21.679303 78.1305489,21.4210428 L82,17.5259165 L80.065189,15.579128 L77.1631434,18.5003436 L63.6191242,4.86765988 L66.5213407,1.94627215 L64.5870427,0 L60.7175917,3.89478199 C60.1834029,4.43253513 60.1834029,5.30433379 60.7175917,5.84208693 L61.6849972,6.81634185 L59.0080012,9.51034605 C55.1123853,10.8751512 51.5726872,13.1066227 48.6522988,16.0387147 L46.2068509,18.5001714 C45.2612987,19.4466767 44.8331373,20.7974967 45.0593991,22.1203037 C45.2856608,23.4431107 46.1379737,24.5720329 47.3435567,25.1457605 L47.3435567,25.1459326 Z M48.141662,20.4478206 L50.5871099,17.9863639 C53.2849738,15.2773158 56.5696367,13.234146 60.1835264,12.017073 C60.3849851,11.9493754 60.5680522,11.835469 60.7182757,11.684346 L63.6204922,8.76330252 L73.2942054,18.5003436 L71.9452758,19.8581038 C70.6499931,21.1592352 70.0881568,23.0268344 70.4487643,24.8326563 L71.3301516,29.2687867 C71.6490153,30.874338 71.0947139,32.529351 69.8752095,33.6129 C68.655705,34.696449 66.9553829,35.0447048 65.4121676,34.5270091 L65.1859209,34.4510999 L67.4901143,32.1318224 L65.5551323,30.1843453 L52.9786895,42.8431183 C52.6338071,43.1945303 52.1283463,43.3330883 51.6540589,43.2062289 C51.1797715,43.0793694 50.8093229,42.7065288 50.6832467,42.2291477 C50.5571704,41.7517666 50.6947825,41.2429847 51.0438785,40.8958134 L59.7503571,32.1323388 L57.8155461,30.1848617 L53.945924,34.0796437 C53.6010107,34.431025 53.0955378,34.569538 52.6212615,34.4426364 C52.1469852,34.3157347 51.7765695,33.9428611 51.6505351,33.4654688 C51.5245008,32.9880765 51.6621576,32.4793068 52.011284,32.1321666 L55.8807351,28.2373846 L55.8807351,28.2373846 L53.945924,26.2902518 L51.0423394,29.2128445 C50.506752,29.7446816 49.6450237,29.7414173 49.1134285,29.2055374 C48.5818334,28.6696576 48.5798851,27.8022842 49.1090675,27.2639904 L52.9786895,23.3690362 L51.0438785,21.4215592 L51.0438785,21.4215592 L50.076644,22.3951256 C49.7317615,22.7465376 49.2263008,22.8850955 48.7520134,22.7582361 C48.2777259,22.6313767 47.9072774,22.258536 47.7812011,21.7811549 C47.6551249,21.3037738 47.792737,20.7949919 48.141833,20.4478206 L48.141662,20.4478206 Z" id="Shape"></path>
                <path d="M38.6564433,60.8541189 L38.8257436,60.6837107 C39.8592006,59.6464163 40.2666487,58.134205 39.8954771,56.7134797 C39.5243054,55.2927544 38.4305223,54.1778975 37.0238076,53.7864819 C37.4451195,51.9100399 36.5152019,49.9908077 34.7868213,49.1696247 L36.8911035,47.0524319 C37.9279351,46.0087535 38.3328313,44.4875918 37.9532717,43.0619539 C37.5737121,41.6363159 36.4673608,40.5227899 35.0509697,40.1408303 C33.6345785,39.7588708 32.123331,40.1665064 31.0864994,41.2101848 L22.9777019,49.370844 L21.4533157,48.8594473 C18.9846352,48.0312577 16.2646083,48.5884891 14.31393,50.3220395 C12.3632517,52.0555899 11.4769271,54.7032908 11.9875512,57.2715877 L12.8689385,61.7075369 C13.0494077,62.610522 12.7684344,63.5444613 12.1205972,64.1949802 L10.7716676,65.5527376 L9.80426209,64.5790011 C9.54769478,64.3207414 9.1997069,64.1756515 8.83685657,64.1756515 C8.47400625,64.1756515 8.12601837,64.3207414 7.86945106,64.5790011 L4,68.473603 L5.93481103,70.4209039 L8.83685657,67.4996943 L22.3808758,81.1323501 L19.4786593,84.0537318 L21.4129573,86 L25.2824083,82.1050538 C25.8165971,81.5673018 25.8165971,80.6955049 25.2824083,80.1577529 L24.3150028,79.1836721 L26.9919988,76.4889849 C30.8876147,75.1241825 34.4273128,72.8927157 37.3477012,69.9606296 L39.7931491,67.4991779 C40.7387013,66.5526746 41.1668627,65.2018574 40.9406009,63.8790531 C40.7143392,62.5562487 39.8620263,61.4273289 38.6564433,60.8536025 L38.6564433,60.8541189 Z M37.858338,65.5522212 L35.4128901,68.013673 C32.7150262,70.7227155 29.4303633,72.7658811 25.8164736,73.9829516 C25.6150149,74.050649 25.4319478,74.1645552 25.2817243,74.3156779 L22.3795078,77.2367154 L12.7064786,67.4996943 L14.0554082,66.1419369 C15.350691,64.8408082 15.9125272,62.9732128 15.5519198,61.1673945 L14.6705324,56.7312733 C14.3516687,55.1257252 14.9059701,53.4707156 16.1254746,52.3871688 C17.344979,51.303622 19.0453012,50.955367 20.5885164,51.4730615 L20.8147631,51.5489706 L18.5105697,53.8682434 L20.4455518,55.8157165 L33.0213105,43.1569694 C33.3661929,42.8055581 33.8716537,42.6670004 34.3459411,42.7938596 C34.8202285,42.9207188 35.1906771,43.2935587 35.3167533,43.7709388 C35.4428296,44.2483189 35.3052175,44.7570997 34.9561215,45.1042703 L26.2496429,53.867727 L28.1844539,55.8152001 L32.054076,51.9204261 C32.3989893,51.5690455 32.9044622,51.4305328 33.3787385,51.5574342 C33.8530148,51.6843355 34.2234305,52.0572084 34.3494649,52.5345997 C34.4754992,53.011991 34.3378424,53.5207596 33.988716,53.8678992 L30.1192649,57.7626732 L30.1192649,57.7626732 L32.054076,59.709802 L34.9576606,56.7872153 C35.493248,56.2553793 36.3549763,56.2586436 36.8865715,56.7945224 C37.4181666,57.3304011 37.4201149,58.1977727 36.8909325,58.7360655 L33.0213105,62.6310116 L34.9561215,64.5784847 L34.9561215,64.5784847 L35.923356,63.6049203 C36.2682385,63.253509 36.7736992,63.1149513 37.2479866,63.2418105 C37.7222741,63.3686697 38.0927226,63.7415096 38.2187989,64.2188897 C38.3448751,64.6962698 38.207263,65.2050507 37.858167,65.5522212 L37.858338,65.5522212 Z" id="Shape"></path>
            </g>
        </g>
    </g>
</svg>