<?xml version="1.0" encoding="UTF-8"?>
<svg width="84px" height="84px" viewBox="0 0 84 84" version="1.1" xmlns="http://www.w3.org/2000/svg" xmlns:xlink="http://www.w3.org/1999/xlink">
    <!-- Generator: Sketch 63.1 (92452) - https://sketch.com -->
    <title>education</title>
    <desc>Created with Sketch.</desc>
    <g id="Page-1" stroke="none" stroke-width="1" fill="none" fill-rule="evenodd">
        <g id="Artboard" transform="translate(-5.000000, -5.000000)" fill="#FFFFFF" fill-rule="nonzero">
            <g id="education" transform="translate(5.000000, 5.000000)">
                <path d="M41.6129032,0 L23.5806452,0 C22.8146263,0 22.1935484,0.626855425 22.1935484,1.4 L22.1935484,11.2 L1.38709677,11.2 C0.621077956,11.2 0,11.8268554 0,12.6 L0,82.6 C0,83.3731446 0.621077956,84 1.38709677,84 L41.6129032,84 C42.378922,84 43,83.3731446 43,82.6 L43,1.4 C43,0.626855425 42.378922,0 41.6129032,0 Z M40.2258065,72.8 L24.9677419,72.8 L24.9677419,70 L40.2258065,70 L40.2258065,72.8 Z M2.77419355,21 L22.1935484,21 L22.1935484,63 L2.77419355,63 L2.77419355,21 Z M40.2258065,15.4 L24.9677419,15.4 L24.9677419,11.2 L40.2258065,11.2 L40.2258065,15.4 Z M2.77419355,65.8 L22.1935484,65.8 L22.1935484,70 L2.77419355,70 L2.77419355,65.8 Z M24.9677419,67.2 L24.9677419,18.2 L40.2258065,18.2 L40.2258065,67.2 L24.9677419,67.2 Z M40.2258065,2.8 L40.2258065,8.4 L24.9677419,8.4 L24.9677419,2.8 L40.2258065,2.8 Z M22.1935484,14 L22.1935484,18.2 L2.77419355,18.2 L2.77419355,14 L22.1935484,14 Z M2.77419355,72.8 L22.1935484,72.8 L22.1935484,81.2 L2.77419355,81.2 L2.77419355,72.8 Z M24.9677419,81.2 L24.9677419,75.6 L40.2258065,75.6 L40.2258065,81.2 L24.9677419,81.2 Z" id="Shape"></path>
                <path d="M83.954791,76.6291175 L66.9893063,12.0499287 C66.8947313,11.6879869 66.6586395,11.3788283 66.332805,11.190317 C66.0076607,11.0024911 65.6203871,10.9510789 65.2565846,11.0477339 L44.0497288,16.6633155 C43.2986526,16.8621092 42.8499399,17.6257515 43.0459927,18.372942 L60.0114774,82.9521308 C60.1060524,83.3140726 60.3428345,83.6232312 60.668669,83.811057 C60.9938132,83.9981973 61.3810868,84.0489241 61.7441991,83.9515837 L82.9510549,78.3360021 C83.7007505,78.1372082 84.1487729,77.3749369 83.954791,76.6291175 L83.954791,76.6291175 Z M48.3898168,27.5908041 L66.8650472,22.6997915 L67.5298325,25.226529 L49.0559826,30.1250821 L48.3898168,27.5908041 Z M68.243631,27.9506894 L76.4433391,59.1839348 L57.9750118,64.0770037 L49.7753038,32.841702 L68.243631,27.9506894 Z M77.1633505,61.9019256 L78.6109669,67.4112553 L60.1357365,72.3022679 L58.6936425,66.7949946 L77.1633505,61.9019256 Z M64.6118188,14.1235535 L66.1512488,19.9845427 L47.6760182,24.8741842 L46.1379689,19.0159371 L64.6118188,14.1235535 Z M62.3889649,80.878506 L60.8495349,75.0175168 L79.3247655,70.1251333 L80.8628148,75.9833805 L62.3889649,80.878506 Z" id="Shape"></path>
                <path d="M18.6,25 L7.4,25 C6.62685543,25 6,25.6268554 6,26.4 L6,37.6 C6,38.3731446 6.62685543,39 7.4,39 L18.6,39 C19.3731446,39 20,38.3731446 20,37.6 L20,26.4 C20,25.6268554 19.3731446,25 18.6,25 Z M17.2,36.2 L8.8,36.2 L8.8,27.8 L17.2,27.8 L17.2,36.2 Z" id="Shape"></path>
            </g>
        </g>
    </g>
</svg>