<?xml version="1.0" standalone="no"?>
<!DOCTYPE svg PUBLIC "-//W3C//DTD SVG 20010904//EN"
 "http://www.w3.org/TR/2001/REC-SVG-20010904/DTD/svg10.dtd">
<svg version="1.0" xmlns="http://www.w3.org/2000/svg"
 width="512.000000pt" height="512.000000pt" viewBox="0 0 512.000000 512.000000"
 preserveAspectRatio="xMidYMid meet">
<metadata>
Created by potrace 1.16, written by Peter Selinger 2001-2019
</metadata>
<g transform="translate(0.000000,512.000000) scale(0.100000,-0.100000)"
fill="#000000" stroke="none">
<path d="M0 2560 c0 -2269 2 -2560 15 -2560 13 0 15 258 15 2262 l0 2261 272
-6 c149 -4 313 -7 363 -7 l92 0 6 -137 c7 -187 38 -281 125 -386 128 -156 337
-227 530 -182 99 24 179 70 257 149 120 121 155 217 155 424 l0 132 730 0 730
0 0 -128 c0 -144 13 -209 61 -304 40 -79 143 -183 225 -226 267 -140 590 -31
729 247 38 75 55 168 55 299 l0 112 358 0 359 0 6 -1282 c4 -706 7 -1721 7
-2255 0 -858 2 -973 15 -973 13 0 15 291 15 2560 l0 2560 -612 -1 c-370 0
-601 -4 -583 -10 95 -27 196 -123 231 -219 21 -57 32 -462 15 -554 -37 -200
-207 -322 -411 -295 -115 16 -219 93 -269 199 -26 54 -26 58 -29 327 -3 268
-3 274 21 332 39 95 101 158 195 197 l57 24 -1180 0 -1180 0 59 -25 c73 -30
147 -100 184 -175 l27 -55 0 -285 0 -285 -27 -55 c-71 -144 -219 -221 -380
-200 -144 20 -256 123 -294 269 -22 90 -16 513 9 581 36 96 137 192 232 219
18 6 -211 10 -577 10 l-608 1 0 -2560z"/>
<path d="M400 1800 l0 -1440 2160 0 2160 0 0 1440 0 1440 -2160 0 -2160 0 0
-1440z m2010 805 l0 -255 -285 0 -285 0 0 255 0 255 285 0 285 0 0 -255z m920
0 l0 -255 -290 0 -290 0 0 255 0 255 290 0 290 0 0 -255z m850 0 l0 -255 -285
0 -285 0 0 255 0 255 285 0 285 0 0 -255z m-2670 -830 l0 -255 -290 0 -290 0
0 255 0 255 290 0 290 0 0 -255z m900 0 l0 -255 -285 0 -285 0 0 255 0 255
285 0 285 0 0 -255z m920 0 l0 -255 -290 0 -290 0 0 255 0 255 290 0 290 0 0
-255z m850 0 l0 -255 -285 0 -285 0 0 255 0 255 285 0 285 0 0 -255z m-2670
-850 l0 -255 -290 0 -290 0 0 255 0 255 290 0 290 0 0 -255z m900 0 l0 -255
-285 0 -285 0 0 255 0 255 285 0 285 0 0 -255z m920 0 l0 -255 -290 0 -290 0
0 255 0 255 290 0 290 0 0 -255z m850 0 l0 -255 -285 0 -285 0 0 255 0 255
285 0 285 0 0 -255z"/>
</g>
</svg>
