<?xml version="1.0" encoding="UTF-8"?>
<svg width="71px" height="86px" viewBox="0 0 71 86" version="1.1" xmlns="http://www.w3.org/2000/svg" xmlns:xlink="http://www.w3.org/1999/xlink">
    <!-- Generator: Sketch 63.1 (92452) - https://sketch.com -->
    <title>interface</title>
    <desc>Created with Sketch.</desc>
    <g id="Page-1" stroke="none" stroke-width="1" fill="none" fill-rule="evenodd">
        <g id="Artboard" transform="translate(-12.000000, -4.000000)" fill="#FFFFFF" fill-rule="nonzero">
            <g id="interface" transform="translate(12.000000, 4.000000)">
                <path d="M62.858724,28.6557311 L66.4466145,25.039154 C68.3958333,23.0753631 68.3958333,19.8787078 66.4466145,17.9136048 C64.4973958,15.9491577 61.3255208,15.9491577 59.3763022,17.9136048 L55.5455728,21.7742614 C51.5494792,18.9693146 46.9941407,17.027832 42.2213542,16.0961304 L42.2213542,11.0859375 L45.5546875,11.0859375 C46.4752605,11.0859375 47.2213542,10.334015 47.2213542,9.40625 L47.2213542,5.0390625 C47.2213542,2.26036068 44.9785157,0 42.2213542,0 L28.8880208,0 C26.1308593,0 23.8880208,2.26036068 23.8880208,5.0390625 L23.8880208,9.40625 C23.8880208,10.334015 24.6341145,11.0859375 25.5546875,11.0859375 L28.8880208,11.0859375 L28.8880208,16.0961304 C24.1158855,17.0271759 19.5598958,18.9693146 15.5638022,21.7742614 L11.7330728,17.9136048 C9.78450517,15.9491577 6.61263017,15.9491577 4.6627605,17.9136048 C2.71354167,19.8780518 2.71354167,23.074707 4.6627605,25.039154 L8.250651,28.6557311 C3.27734383,34.8987884 0.5546875,42.6752166 0.5546875,50.7265625 C0.5546875,70.1761628 16.2558593,86 35.5546875,86 C54.8535157,86 70.5546875,70.1761628 70.5546875,50.7265625 C70.5546875,42.6752166 67.8320312,34.8987884 62.858724,28.6557311 Z M61.7330728,20.2887878 C62.3834635,19.6339722 63.4401042,19.6346283 64.0898438,20.2887878 C64.7389323,20.9436035 64.7389323,22.0091553 64.0898438,22.663971 L60.6458333,26.1342316 C59.8697917,25.331131 59.0559895,24.5654297 58.2096355,23.8404084 L61.7330728,20.2887878 Z M27.2213542,5.0390625 C27.2213542,4.11260986 27.96875,3.359375 28.8880208,3.359375 L42.2213542,3.359375 C43.140625,3.359375 43.8880208,4.11260986 43.8880208,5.0390625 L43.8880208,7.7265625 L27.2213542,7.7265625 L27.2213542,5.0390625 Z M38.8880208,11.0859375 L38.8880208,15.6119079 C36.6790365,15.4032593 34.4309895,15.4032593 32.2213542,15.6119079 L32.2213542,11.0859375 L38.8880208,11.0859375 Z M7.01953117,20.2887878 C7.66927083,19.6346283 8.7265625,19.6339722 9.37630217,20.2887878 L12.8997395,23.8404084 C12.0533855,24.5654297 11.2395833,25.331131 10.4635417,26.1342316 L7.01953117,22.663971 C6.37044267,22.0091553 6.37044267,20.9436035 7.01953117,20.2887878 Z M35.5546875,82.640625 C18.09375,82.640625 3.88802083,68.3239136 3.88802083,50.7265625 C3.88802083,42.9639129 6.68424483,35.4847106 11.7610677,29.665512 C13.1595052,28.0625915 14.7200522,26.5981139 16.3990885,25.310791 C20.6067708,22.0839538 25.5872395,19.9600677 30.8020833,19.1681214 C32.3626302,18.9325715 33.9615885,18.8125 35.5546875,18.8125 C37.1477865,18.8125 38.7467448,18.9325715 40.3066407,19.1681214 C45.5221355,19.9600677 50.5026042,22.0839538 54.7109375,25.310791 C56.3893228,26.5981139 57.9498698,28.0625915 59.3483073,29.665512 C64.4251302,35.4847106 67.2213542,42.9639129 67.2213542,50.7265625 C67.2213542,68.3239136 53.015625,82.640625 35.5546875,82.640625 Z" id="Shape"></path>
                <path d="M35.5546875,56 C38.311849,56 40.5546875,53.6930804 40.5546875,50.8571429 C40.5546875,48.6225447 39.1614583,46.716741 37.2213542,46.0089286 L37.2213542,33.7142857 C37.2213542,32.7674106 36.4752605,32 35.5546875,32 C34.6341145,32 33.8880208,32.7674106 33.8880208,33.7142857 L33.8880208,46.0089286 C31.9479167,46.716741 30.5546875,48.6225447 30.5546875,50.8571429 C30.5546875,53.6930804 32.797526,56 35.5546875,56 Z M35.5546875,49.1428571 C36.4739583,49.1428571 37.2213542,49.9116071 37.2213542,50.8571429 C37.2213542,51.8026786 36.4739583,52.5714286 35.5546875,52.5714286 C34.6354167,52.5714286 33.8880208,51.8026786 33.8880208,50.8571429 C33.8880208,49.9116071 34.6354167,49.1428571 35.5546875,49.1428571 Z" id="Shape"></path>
                <path d="M53.3092448,33.4603843 C53.2832032,33.4298167 53.2571615,33.3992491 53.2278645,33.3706328 C53.1966145,33.3387644 53.1634115,33.310148 53.1302083,33.2815316 C50.1927083,30.3782652 46.5638022,28.2300824 42.625651,27.0685156 C41.7421875,26.8083663 40.8157552,27.3117552 40.5553385,28.1936615 C40.2949218,29.0755675 40.7988282,30.0016991 41.6816407,30.2618484 C44.5996093,31.1229428 47.3216145,32.6109968 49.6419272,34.5978871 L48.5175782,35.7210818 C47.8671875,36.3714551 47.8671875,37.4257101 48.5175782,38.0760834 C48.843099,38.4012701 49.2695312,38.5638635 49.6966145,38.5638635 C50.1230468,38.5638635 50.5494792,38.4012701 50.875,38.0760834 L52.0019532,36.9502874 C55.0175782,40.4531978 56.8085938,44.7651728 57.1575522,49.3607103 L55.5546875,49.3607103 C54.6341145,49.3607103 53.8880208,50.1066885 53.8880208,51.0256659 C53.8880208,51.9452938 54.6341145,52.6906215 55.5546875,52.6906215 L57.1575522,52.6906215 C56.8085938,57.2868095 55.0175782,61.598134 52.0019532,65.1010444 L50.875,63.9752484 C50.2239583,63.3255254 49.1686198,63.3255254 48.5175782,63.9752484 C47.8665365,64.6256217 47.8665365,65.6798767 48.5175782,66.33025 L49.6445312,67.4560462 C46.1380208,70.4685753 41.8216145,72.2577522 37.2213542,72.6070026 L37.2213542,71.0051332 C37.2213542,70.0855053 36.4752605,69.3401776 35.5546875,69.3401776 C34.6341145,69.3401776 33.8880208,70.0855053 33.8880208,71.0051332 L33.8880208,72.6063523 C29.2877605,72.2577522 24.9713542,70.4685753 21.4648438,67.4560462 L22.5917968,66.33025 C23.2428385,65.6798767 23.2428385,64.6256217 22.5917968,63.9752484 C21.9407552,63.3255254 20.8854167,63.3255254 20.234375,63.9752484 L19.1074218,65.1010444 C16.0917968,61.598134 14.3007812,57.2861591 13.9518228,52.6906215 L15.5546875,52.6906215 C16.4752605,52.6906215 17.2213542,51.9452938 17.2213542,51.0256659 C17.2213542,50.106038 16.4752605,49.3607103 15.5546875,49.3607103 L13.9518228,49.3607103 C14.3007812,44.7651728 16.0917968,40.4531978 19.1074218,36.9502874 L20.234375,38.0760834 C20.5598958,38.4012701 20.9863282,38.5638635 21.4127605,38.5638635 C21.8398438,38.5638635 22.266276,38.4012701 22.5917968,38.0760834 C23.2421875,37.4257101 23.2421875,36.3714551 22.5917968,35.7210818 L21.4674478,34.5978871 C23.7877605,32.6103463 26.5097657,31.1229428 29.4277343,30.2618484 C30.3105468,30.0016991 30.8144532,29.0755675 30.5540365,28.1936615 C30.2936198,27.3117552 29.3678385,26.8090166 28.483724,27.0685156 C24.546224,28.2294319 20.9186198,30.3769646 17.9817708,33.2789301 C17.9472657,33.308197 17.9134115,33.3381141 17.8815105,33.3699823 C17.8528645,33.3985988 17.827474,33.428516 17.8014323,33.4584331 C13.1276042,38.171038 10.5546875,44.4042155 10.5546875,51.0256659 C10.5546875,57.6464659 13.1276042,63.8789932 17.8001302,68.5909476 C17.8261718,68.6215151 17.8522135,68.6520827 17.8815105,68.680699 C17.9101562,68.7099659 17.9401042,68.7353305 17.9700522,68.7613454 C22.6875,73.4297248 28.9264323,76 35.5546875,76 C42.1822917,76 48.421224,73.4303751 53.1380208,68.7626461 C53.1686198,68.7359808 53.1992188,68.7099659 53.2278645,68.680699 C53.2565105,68.6527331 53.281901,68.6221655 53.3079427,68.5928987 C57.9817708,63.8802938 60.5546875,57.6471163 60.5546875,51.0256659 C60.5546875,44.4048659 57.9817708,38.1723387 53.3092448,33.4603843 Z" id="Path"></path>
                <path d="M36.0546875,29 C36.8826172,29 37.5546875,28.3279297 37.5546875,27.5 C37.5546875,26.6720703 36.8826172,26 36.0546875,26 C35.2267578,26 34.5546875,26.6720703 34.5546875,27.5 C34.5546875,28.3279297 35.2267578,29 36.0546875,29 Z" id="Path"></path>
            </g>
        </g>
    </g>
</svg>