<?xml version="1.0" encoding="UTF-8"?>
<svg width="84px" height="74px" viewBox="0 0 84 74" version="1.1" xmlns="http://www.w3.org/2000/svg" xmlns:xlink="http://www.w3.org/1999/xlink">
    <!-- Generator: Sketch 63.1 (92452) - https://sketch.com -->
    <title>Shape</title>
    <desc>Created with Sketch.</desc>
    <g id="Page-1" stroke="none" stroke-width="1" fill="none" fill-rule="evenodd">
        <g id="Artboard" transform="translate(-5.000000, -10.000000)" fill="#FFFFFF" fill-rule="nonzero">
            <g id="business" transform="translate(5.000000, 9.308594)">
                <path d="M81.5544434,10.5587152 C81.5493164,10.5587152 81.5441895,10.5580729 81.5390625,10.5580729 L59.2265625,10.5580729 L59.2265625,8.09140625 C59.2265625,4.01112847 55.9145508,0.69140625 51.84375,0.69140625 L32.15625,0.69140625 C28.0854492,0.69140625 24.7734375,4.01112847 24.7734375,8.09140625 L24.7734375,10.5580729 L2.4609375,10.5580729 C1.09075936,10.5580729 0,11.6834896 0,13.0247396 L0,67.2914063 C0,71.371684 3.31201172,74.6914062 7.3828125,74.6914062 L76.6171875,74.6914062 C80.6879883,74.6914062 84,71.371684 84,67.2914063 L84,13.0767708 C84,13.073559 84,13.0703473 84,13.0671353 C83.9057922,11.4471007 82.9118043,10.5677084 81.5544434,10.5587152 Z M29.6953125,8.09140625 C29.6953125,6.73152782 30.7995301,5.62473958 32.15625,5.62473958 L51.84375,5.62473958 C53.2004699,5.62473958 54.3046875,6.73152782 54.3046875,8.09140625 L54.3046875,10.5580729 L29.6953125,10.5580729 L29.6953125,8.09140625 Z M78.1245117,15.4914062 L70.4821473,38.4712327 C70.1469727,39.4803819 69.2087402,40.1580729 68.1481018,40.1580729 L54.3046875,40.1580729 L54.3046875,37.6914062 C54.3046875,36.3289584 53.2030334,35.2247396 51.84375,35.2247396 L32.15625,35.2247396 C30.7969666,35.2247396 29.6953125,36.3289584 29.6953125,37.6914062 L29.6953125,40.1580729 L15.8518982,40.1580729 C14.7912598,40.1580729 13.8530273,39.4803819 13.5178527,38.4712327 L5.87548828,15.4914062 L78.1245117,15.4914062 Z M49.3828125,40.1580729 L49.3828125,45.0914062 L34.6171875,45.0914062 L34.6171875,40.1580729 L49.3828125,40.1580729 Z M79.078125,67.2914062 C79.078125,68.6512847 77.9739074,69.7580729 76.6171875,69.7580729 L7.3828125,69.7580729 C6.02609257,69.7580729 4.921875,68.6512847 4.921875,67.2914062 L4.921875,28.2249306 L8.84848027,40.0315278 C9.85464473,43.0583334 12.669342,45.0914062 15.8518982,45.0914062 L29.6953125,45.0914062 L29.6953125,47.5580729 C29.6953125,48.9205208 30.7969666,50.0247396 32.15625,50.0247396 L51.84375,50.0247396 C53.2030334,50.0247396 54.3046875,48.9205208 54.3046875,47.5580729 L54.3046875,45.0914062 L68.1481018,45.0914062 C71.330658,45.0914062 74.1453553,43.0583334 75.1515197,40.0315278 L79.078125,28.2249306 L79.078125,67.2914062 Z" id="Shape"></path>
            </g>
        </g>
    </g>
</svg>